<?xml version="1.0" standalone="no"?>
<!DOCTYPE svg PUBLIC "-//W3C//DTD SVG 20010904//EN"
 "http://www.w3.org/TR/2001/REC-SVG-20010904/DTD/svg10.dtd">
<svg version="1.0" xmlns="http://www.w3.org/2000/svg"
 width="461.000000pt" height="461.000000pt" viewBox="0 0 461.000000 461.000000"
 preserveAspectRatio="xMidYMid meet">
<metadata>
Created by potrace 1.14, written by Peter Selinger 2001-2017
</metadata>
<g transform="translate(0.000000,461.000000) scale(0.100000,-0.100000)"
fill="#000000" stroke="none">
<path d="M2235 4561 c-103 -65 -217 -93 -393 -99 l-122 -3 -18 31 c-15 27 -21
30 -47 25 -16 -3 -32 -10 -33 -15 -2 -6 -7 -8 -11 -6 -13 9 -216 -71 -342
-135 -265 -132 -499 -313 -702 -543 l-70 -79 27 -14 c30 -16 34 -43 8 -66 -23
-21 -41 -21 -63 -1 -16 14 -19 13 -43 -19 -14 -19 -26 -37 -26 -41 0 -5 32
-39 70 -78 39 -38 69 -76 68 -85 -2 -9 -34 -49 -73 -89 -38 -40 -75 -79 -81
-86 -6 -7 -25 -24 -42 -38 -17 -14 -31 -29 -32 -34 0 -18 129 -132 189 -167
36 -20 61 -41 61 -51 0 -20 -43 -104 -69 -133 -10 -11 -21 -29 -25 -40 -8 -21
-36 -123 -36 -130 0 -7 67 -34 137 -56 34 -11 65 -24 68 -29 3 -6 18 -10 33
-10 15 0 38 -9 51 -19 l25 -19 -24 -78 c-13 -46 -25 -117 -28 -171 -4 -81 -3
-93 12 -93 9 0 16 -7 16 -15 0 -9 -9 -15 -25 -15 -29 0 -46 31 -40 76 2 16 6
56 10 89 3 33 14 90 25 125 22 74 23 73 -64 90 -67 14 -185 50 -228 70 -37 18
-36 43 7 127 19 37 35 78 35 89 0 12 11 42 25 67 14 24 23 51 20 58 -4 8 -32
30 -63 49 -31 19 -88 65 -125 101 -65 63 -68 68 -55 89 7 12 19 32 25 44 7 11
13 18 13 14 0 -3 14 7 30 24 17 16 28 34 24 39 -3 5 -1 8 4 7 11 -3 122 99
122 112 0 6 -79 82 -99 94 -11 7 -61 -75 -61 -99 0 -10 -12 -31 -28 -49 -15
-17 -49 -82 -76 -145 l-49 -115 7 -85 c4 -47 10 -87 14 -89 4 -1 6 -19 4 -40
-2 -21 3 -80 12 -130 9 -51 16 -103 16 -116 0 -35 53 -213 85 -287 33 -74 74
-128 162 -213 71 -69 119 -109 180 -148 24 -15 43 -33 43 -40 0 -7 -7 -58 -15
-113 -8 -55 -15 -122 -15 -148 0 -63 -6 -59 -126 79 -53 60 -101 112 -109 116
-7 5 -18 1 -25 -7 -21 -25 -36 -17 -87 43 -26 31 -51 59 -54 62 -4 3 -36 52
-73 110 l-66 104 26 24 c24 23 25 29 19 81 -4 31 -10 60 -15 64 -4 5 -35 -29
-69 -74 -60 -79 -62 -84 -57 -128 3 -25 8 -83 12 -128 3 -46 9 -81 14 -78 4 2
5 -6 3 -19 -3 -13 5 -68 16 -122 51 -237 146 -486 263 -687 l39 -68 46 41 c25
22 51 40 58 40 7 0 48 -39 92 -87 43 -47 94 -104 113 -125 l36 -39 26 20 c14
12 31 21 37 21 7 0 14 6 17 14 7 18 90 77 98 69 19 -19 1 -50 -46 -83 -28 -19
-68 -50 -88 -68 -21 -17 -44 -32 -51 -31 -8 0 -57 50 -109 111 -52 61 -102
116 -111 121 -12 7 -24 4 -47 -13 -18 -13 -32 -30 -32 -37 0 -17 55 -92 80
-110 11 -8 20 -20 20 -26 0 -15 51 -79 128 -161 59 -63 60 -64 123 -70 35 -3
89 -10 119 -16 30 -6 74 -13 96 -16 50 -8 54 -19 54 -153 l0 -86 58 -37 c89
-57 92 -58 92 -8 0 23 7 89 15 146 36 239 88 366 193 474 77 77 144 115 222
124 73 9 111 -14 141 -83 12 -28 30 -53 41 -57 14 -4 16 -9 9 -18 -8 -9 2 -34
35 -89 24 -42 49 -99 54 -127 31 -164 19 -401 -33 -663 -5 -29 379 -63 586
-52 l128 7 43 92 c44 93 79 137 106 132 110 -21 177 -28 160 -16 -13 8 -12 10
4 10 13 0 17 5 13 20 -3 12 -1 18 5 14 5 -3 8 -15 5 -25 -3 -11 0 -19 6 -19 7
0 5 -5 -3 -10 -9 -6 -10 -10 -3 -10 26 0 123 -42 118 -51 -4 -5 -1 -17 5 -26
11 -17 11 -17 6 1 -5 15 -4 16 7 8 10 -8 27 -7 65 5 44 14 52 21 52 41 0 23 2
24 45 19 25 -4 47 -2 50 4 9 13 -53 218 -71 236 -13 13 -17 26 -29 85 -3 16
46 48 74 48 17 0 15 6 -45 124 -50 98 -79 147 -140 233 l-16 23 53 -16 c71
-21 154 -71 186 -113 30 -39 58 -108 68 -169 7 -42 8 -43 38 -36 18 3 33 7 35
9 10 9 32 154 33 220 l1 80 10 -50 c5 -27 8 -91 6 -142 -3 -103 -4 -102 63
-80 l36 12 -39 215 c-51 283 -50 281 -202 371 -77 46 -122 67 -130 61 -12 -10
-182 -74 -321 -122 -49 -16 -96 -33 -104 -35 -8 -3 32 -32 97 -68 62 -34 118
-71 125 -82 34 -52 153 -352 143 -362 -1 -2 -29 10 -62 25 -32 16 -81 37 -109
47 -27 10 -55 22 -61 27 -8 5 -16 -2 -23 -21 -7 -16 -22 -33 -34 -39 -20 -10
-20 -11 10 -11 18 -1 51 -9 72 -18 35 -15 38 -18 23 -31 -9 -7 -11 -10 -4 -7
10 5 12 0 9 -23 -3 -16 -1 -36 4 -43 6 -9 9 1 11 31 1 43 2 43 5 8 3 -23 -2
-46 -13 -63 -16 -25 -16 -39 1 -135 l6 -35 -16 30 -15 30 4 -28 c3 -22 -2 -31
-25 -43 -16 -8 -29 -19 -29 -24 0 -6 -11 -10 -25 -10 -14 0 -25 -3 -25 -7 0
-5 -19 -9 -42 -10 -23 -2 -45 -8 -49 -14 -4 -8 -8 -7 -12 2 -4 10 -6 10 -6 2
-1 -7 -6 -13 -12 -13 -5 0 -8 4 -5 8 6 10 -25 9 -42 -1 -8 -6 -10 -3 -5 10 6
16 5 17 -12 3 -10 -8 -16 -10 -12 -4 4 7 1 14 -7 17 -8 3 -24 27 -37 54 -13
26 -27 51 -32 54 -4 3 -10 28 -13 55 -6 48 -5 50 51 112 50 55 56 64 44 80 -8
9 -31 38 -52 64 -23 28 -36 52 -32 60 4 7 -7 -3 -24 -22 -23 -27 -28 -41 -24
-60 10 -37 9 -55 -2 -58 -5 -2 -15 -8 -22 -13 -8 -7 -14 -5 -21 7 -8 14 -12
13 -29 -12 -11 -16 -36 -58 -56 -92 l-35 -64 -28 39 c-15 21 -40 54 -55 75
-36 46 -50 77 -93 213 -32 103 -34 114 -26 185 5 41 9 101 10 133 0 62 1 62
33 46 21 -10 21 -10 3 5 -11 9 -23 16 -26 16 -4 0 -12 47 -19 105 -6 57 -18
124 -26 147 l-15 43 66 -69 c104 -108 157 -201 209 -368 19 -62 17 -186 -5
-244 -6 -16 -7 -24 -2 -19 5 6 19 39 32 75 30 89 40 325 16 415 -8 32 -14 60
-13 60 1 1 50 -31 108 -70 79 -53 105 -75 99 -86 -10 -16 -30 -122 -25 -128 2
-2 13 29 25 68 19 63 24 70 40 61 53 -28 17 -1 -107 83 l-138 92 -46 91 c-25
50 -59 112 -77 137 l-31 47 27 -15 c15 -9 45 -27 67 -40 22 -14 43 -25 48 -25
4 0 -28 35 -71 78 -85 84 -135 168 -171 286 -24 77 -51 245 -50 303 l0 38 13
-48 c20 -74 26 -67 19 22 -4 59 -3 81 6 81 6 0 35 -21 63 -47 31 -29 49 -40
44 -28 -25 68 -18 154 15 195 l21 25 -6 -35 -5 -35 15 27 c15 29 53 45 80 34
13 -5 15 -14 10 -39 -8 -42 -33 -60 -73 -53 -31 4 -32 4 -27 -27 8 -42 34
-127 47 -152 6 -11 11 -23 12 -27 0 -4 15 -19 34 -33 64 -46 192 -28 238 34 9
13 8 18 -3 24 -14 8 -20 37 -8 37 4 0 13 -8 20 -17 13 -17 15 -17 29 2 8 10
23 43 32 72 9 29 19 50 23 48 6 -4 4 65 -4 138 -1 16 2 26 8 24 6 -2 13 -41
16 -88 l5 -84 19 43 c11 24 24 46 29 49 9 5 76 -65 77 -80 0 -5 7 -2 15 7 14
14 14 19 -3 53 -21 40 -24 79 -7 91 6 4 11 16 12 27 0 11 17 65 37 120 31 86
72 241 130 495 15 64 15 62 10 -110 -8 -287 -40 -531 -93 -713 -11 -37 -15
-65 -10 -62 19 13 90 126 143 231 56 111 68 114 41 10 -9 -33 -14 -60 -12 -62
7 -8 69 170 92 264 21 82 95 540 95 582 0 9 3 10 9 5 13 -14 31 -300 31 -500
0 -225 -21 -435 -55 -540 -6 -18 -5 -17 7 2 13 21 61 63 72 63 3 0 4 -13 2
-30 -4 -33 -3 -34 25 -20 25 14 36 -11 20 -46 -9 -20 -17 -25 -39 -22 -26 3
-28 0 -44 -62 -29 -111 -20 -209 20 -225 11 -4 12 -2 4 8 -9 11 -6 13 17 9 22
-3 37 4 62 27 32 29 33 32 17 45 -10 7 -18 18 -18 25 0 17 30 13 37 -4 5 -14
7 -14 18 2 19 29 54 124 65 179 9 41 8 60 -4 95 -8 24 -13 45 -11 47 8 9 56
-82 66 -126 11 -47 9 -57 -29 -136 -3 -5 1 -5 8 -1 9 5 10 1 6 -16 -6 -21 -3
-19 24 11 l31 35 -39 -85 c-22 -47 -51 -132 -66 -190 -15 -58 -34 -131 -42
-163 -30 -121 -86 -201 -171 -249 -62 -35 -69 -24 68 -106 48 -29 94 -52 103
-52 9 0 16 -6 16 -14 0 -8 7 -17 16 -20 8 -3 13 -10 9 -15 -3 -5 -1 -13 5 -16
6 -4 8 -15 5 -25 -6 -18 11 -122 57 -351 l21 -106 43 10 c43 10 43 10 50 64 3
29 4 67 2 83 -3 18 -1 27 4 22 5 -5 12 -42 15 -81 l6 -73 28 6 c15 3 75 11
134 18 128 15 136 22 166 134 17 63 22 111 23 241 0 89 4 152 8 142 10 -26 28
-218 28 -297 0 -35 4 -61 9 -58 4 3 31 39 59 80 45 64 53 84 62 147 13 86 17
408 6 459 -4 19 25 -29 64 -108 63 -128 90 -162 90 -115 0 9 -16 56 -35 104
-41 105 -81 252 -90 335 -6 49 -2 76 23 160 43 143 72 291 91 467 l16 152 34
-119 c50 -178 81 -370 89 -546 4 -116 8 -144 13 -110 31 192 -25 774 -105
1105 -28 113 -26 112 61 -32 30 -51 58 -93 60 -93 10 0 -9 75 -53 217 -54 174
-88 253 -108 253 -10 0 -15 8 -14 23 2 24 -48 116 -116 212 -19 28 -53 84 -74
125 -80 151 -158 248 -312 387 -157 142 -388 305 -522 369 -32 15 -41 16 -62
5 -31 -17 -66 0 -66 33 0 21 -14 28 -127 70 -218 79 -453 127 -693 141 l-95 6
-80 -50z m-1137 -756 c-6 -14 -13 -23 -15 -21 -5 5 15 46 22 46 3 0 -1 -11 -7
-25z m-105 -298 c7 -47 6 -47 -18 -41 -22 5 -27 2 -36 -25 -6 -18 -13 -30 -15
-28 -3 2 7 42 22 88 28 89 37 90 47 6z m119 -37 c39 -33 75 -60 80 -60 5 0 1
14 -7 31 -18 34 -7 59 26 59 35 0 51 -57 23 -85 -15 -15 -15 -17 1 -29 19 -14
13 -36 -10 -36 -13 0 -164 65 -174 75 -5 6 -19 105 -14 105 2 0 35 -27 75 -60z
m218 30 c0 -5 -4 -10 -10 -10 -5 0 -10 5 -10 10 0 6 5 10 10 10 6 0 10 -4 10
-10z m10 -158 c56 -20 56 -20 44 -32 -5 -5 -31 -2 -66 8 -44 13 -58 22 -58 36
0 13 5 16 18 11 9 -4 37 -14 62 -23z m107 -49 c2 -6 -7 -8 -22 -6 -14 3 -25
11 -25 19 0 15 42 4 47 -13z m2773 17 c0 -5 -7 -10 -15 -10 -8 0 -15 5 -15 10
0 6 7 10 15 10 8 0 15 -4 15 -10z m-2699 -36 c25 -11 27 -14 9 -10 -14 3 -31
6 -37 6 -7 0 -13 5 -13 10 0 13 2 13 41 -6z m2759 -13 c0 -11 3 -26 6 -34 4
-11 -5 -18 -32 -26 -46 -13 -53 -9 -52 29 1 25 7 32 32 39 45 13 46 13 46 -8z
m-3722 -23 c28 -28 7 -78 -33 -78 -43 0 -58 39 -28 72 19 21 44 23 61 6z
m3612 -23 c0 -32 -3 -34 -37 -40 -85 -13 -84 -13 -94 12 -12 33 -12 33 15 33
13 0 39 7 57 15 51 22 59 19 59 -20z m-189 -22 c0 -5 2 -16 4 -25 2 -13 -7
-19 -40 -24 -24 -3 -48 -3 -54 1 -20 12 -11 35 17 41 15 3 32 7 37 9 18 6 35
5 36 -2z m-122 -57 c-2 -2 -48 -7 -101 -11 -87 -7 -98 -5 -98 9 0 11 9 16 33
16 17 1 59 7 92 14 55 12 61 11 69 -6 5 -10 7 -20 5 -22z m-239 -11 c0 -11
-12 -15 -45 -15 -25 0 -48 0 -52 -1 -17 -1 -13 20 4 24 43 11 93 7 93 -8z
m-150 -15 c0 -6 -30 -9 -72 -9 -59 1 -66 3 -38 9 53 11 110 11 110 0z m-273
-6 c-3 -3 -12 -4 -19 -1 -8 3 -5 6 6 6 11 1 17 -2 13 -5z m40 0 c-3 -3 -12 -4
-19 -1 -8 3 -5 6 6 6 11 1 17 -2 13 -5z m-550 -106 c-2 -13 -4 -3 -4 22 0 25
2 35 4 23 2 -13 2 -33 0 -45z m-300 10 c-3 -8 -6 -5 -6 6 -1 11 2 17 5 13 3
-3 4 -12 1 -19z m28 -158 c9 -58 21 -134 26 -169 5 -35 11 -67 14 -71 3 -5
-16 -13 -42 -19 -27 -5 -55 -13 -64 -16 -14 -5 -18 2 -21 42 -6 84 24 314 45
341 17 22 25 1 42 -108z m-2076 91 c36 -36 -5 -86 -54 -67 -21 8 -19 62 3 75
24 14 29 14 51 -8z m2156 -71 c4 -36 15 -108 26 -160 10 -52 19 -98 19 -102 0
-5 -16 -8 -35 -8 -45 0 -50 18 -50 170 0 189 24 248 40 100z m195 -90 c0 -100
-4 -160 -10 -160 -6 0 -10 60 -10 160 0 100 4 160 10 160 6 0 10 -60 10 -160z
m945 2 l7 -102 -35 16 c-30 14 -34 20 -27 38 4 12 13 54 20 94 7 40 17 69 21
65 3 -4 10 -54 14 -111z m-1326 -214 c1 -3 -14 -11 -31 -17 -18 -6 -59 -27
-90 -46 -32 -19 -58 -33 -58 -31 0 17 58 201 88 278 l37 98 27 -138 c15 -75
27 -140 27 -144z m-1674 216 c20 -20 16 -53 -7 -68 -37 -23 -76 35 -48 70 16
18 35 18 55 -2z m2830 -208 c-9 -64 -20 -128 -25 -142 -6 -14 -10 -36 -10 -50
0 -14 -7 -27 -17 -31 -10 -3 -31 -15 -46 -26 -36 -24 -43 -17 -22 22 35 70 80
204 110 335 4 20 9 26 16 19 7 -7 5 -48 -6 -127z m147 84 c17 -15 21 -30 20
-63 -4 -74 -24 -191 -39 -229 l-15 -38 -25 20 c-16 12 -41 20 -64 20 l-39 0
18 34 c10 19 36 89 58 155 23 74 44 121 52 121 7 0 23 -9 34 -20z m-920 -75
c4 -17 1 -25 -8 -25 -8 0 -14 11 -14 25 0 14 4 25 9 25 5 0 11 -11 13 -25z
m953 -229 c-4 -58 -11 -106 -16 -106 -5 0 -16 14 -24 30 -15 29 -15 34 10 95
14 35 25 71 25 81 0 9 3 15 6 11 3 -3 3 -53 -1 -111z m-3091 42 c8 -14 7 -21
-6 -34 -30 -30 -75 9 -48 42 16 18 39 15 54 -8z m1836 -58 c0 -5 -5 -10 -11
-10 -5 0 -7 5 -4 10 3 6 8 10 11 10 2 0 4 -4 4 -10z m950 -44 c0 -2 -8 -10
-17 -17 -16 -13 -17 -12 -4 4 13 16 21 21 21 13z m-970 -60 c0 -3 -4 -8 -10
-11 -5 -3 -10 -1 -10 4 0 6 5 11 10 11 6 0 10 -2 10 -4z m147 -88 c-3 -8 -6
-5 -6 6 -1 11 2 17 5 13 3 -3 4 -12 1 -19z m-1641 -155 c-7 -7 -36 16 -36 28
0 4 8 15 18 25 16 17 17 16 20 -15 2 -18 1 -35 -2 -38z m2459 -63 c-3 -5 -1
-10 6 -10 7 0 10 -3 6 -6 -3 -4 -14 -3 -24 0 -15 6 -15 8 -3 16 19 12 23 12
15 0z m-2498 -47 l45 -26 -6 -71 c-9 -93 -25 -176 -35 -176 -5 0 -14 7 -22 16
-11 14 -14 13 -29 -7 -13 -16 -23 -20 -41 -16 -49 13 -52 20 -40 78 18 88 63
229 73 229 5 0 30 -12 55 -27z m963 -238 c10 -12 10 -18 0 -30 -25 -30 -61 -7
-46 30 3 8 12 15 19 15 8 0 20 -7 27 -15z m1915 -25 c0 -18 -6 -26 -22 -28
-18 -3 -23 1 -23 21 0 28 9 39 30 35 9 -2 15 -14 15 -28z m151 0 c44 -31 63
-55 22 -28 -69 45 -68 45 -86 21 -9 -11 -29 -44 -45 -72 -15 -29 -34 -54 -41
-57 -8 -3 -45 16 -82 41 l-69 46 -30 -35 c-32 -38 -45 -45 -45 -23 0 20 53 97
66 97 6 0 42 -21 80 -47 l68 -46 15 24 c9 13 26 34 38 47 13 12 27 31 33 42
14 27 24 25 76 -10z m-2174 -7 c9 -16 32 -43 51 -62 l35 -33 52 52 c28 28 54
49 57 46 4 -3 -1 -14 -10 -24 -10 -10 -17 -23 -17 -28 0 -5 -18 -29 -40 -54
l-39 -45 -66 70 c-51 54 -68 66 -77 57 -16 -16 -38 -15 -38 2 0 16 38 45 60
45 9 1 23 -11 32 -26z m2163 -84 c0 -7 -8 -15 -17 -17 -18 -3 -25 18 -11 32
10 10 28 1 28 -15z m-2187 -15 c4 -26 -26 -40 -45 -21 -8 7 -11 21 -7 31 9 24
48 17 52 -10z m260 -7 c2 -12 -3 -17 -17 -17 -12 0 -21 6 -21 13 0 31 32 34
38 4z m1670 -25 c4 -28 -24 -40 -45 -19 -14 13 -14 19 -3 32 18 22 44 15 48
-13z m-2552 -39 c-11 -11 -17 4 -9 23 7 18 8 18 11 1 2 -10 1 -21 -2 -24z
m2925 -91 c10 -36 10 -45 -1 -52 -7 -4 -10 -15 -7 -23 4 -12 -4 -17 -36 -22
-23 -4 -60 -17 -81 -29 -29 -15 -40 -18 -43 -8 -6 17 -58 15 -95 -4 -23 -12
-36 -13 -52 -6 -11 6 -39 14 -61 17 -71 12 -75 17 -75 96 l0 71 33 -8 c89 -19
277 9 338 51 l34 23 16 -32 c9 -17 23 -50 30 -74z m-2345 79 c26 -26 259 -36
350 -15 18 5 24 -3 43 -55 12 -34 20 -65 16 -70 -3 -5 0 -11 5 -13 6 -2 12
-14 14 -28 2 -14 8 -38 15 -53 11 -29 33 -238 25 -246 -9 -9 -52 108 -68 183
-21 100 -20 110 2 102 14 -5 13 -3 -3 10 -11 8 -19 21 -17 29 2 11 -4 12 -30
4 -18 -5 -50 -9 -70 -9 -32 0 -38 -3 -38 -21 0 -18 -4 -20 -32 -16 -18 3 -53
9 -78 13 -25 4 -49 13 -53 20 -6 10 -23 12 -69 7 l-61 -6 6 69 c8 96 18 119
43 95z m-882 -277 c24 -23 20 -53 -9 -66 -19 -8 -28 -8 -40 2 -20 17 -19 57 3
69 23 14 28 14 46 -5z m261 -74 c10 -19 13 -40 9 -52 l-7 -22 -16 21 c-16 19
-19 19 -45 6 -20 -10 -31 -12 -39 -4 -18 18 8 59 45 70 18 5 34 10 35 10 1 1
10 -13 18 -29z m45 -97 c-1 -24 -2 -26 -11 -10 -5 9 -7 22 -4 27 10 17 15 11
15 -17z m-74 -98 c19 -18 15 -44 -8 -59 -35 -22 -74 27 -48 59 16 19 37 19 56
0z m1568 -161 c5 -14 4 -15 -9 -4 -17 14 -19 20 -6 20 5 0 12 -7 15 -16z m-29
-4 c3 -5 1 -10 -4 -10 -6 0 -11 5 -11 10 0 6 2 10 4 10 3 0 8 -4 11 -10z m65
-55 c0 -5 -5 -3 -10 5 -5 8 -10 20 -10 25 0 6 5 3 10 -5 5 -8 10 -19 10 -25z
m8 -13 c16 12 16 11 2 -6 -14 -18 -13 -18 9 -11 21 6 22 5 10 -8 -8 -8 -20
-12 -28 -9 -9 3 -12 1 -7 -6 3 -6 3 -13 -2 -16 -4 -2 -8 5 -9 17 0 12 -3 31
-7 42 -7 18 -7 19 4 2 10 -15 14 -16 28 -5z m-110 -47 c-1 -4 7 -12 19 -18 20
-11 20 -14 6 -32 -15 -19 -15 -19 -8 5 4 14 4 22 0 18 -10 -9 -35 23 -28 35 6
10 16 2 11 -8z m62 -39 c0 -2 -8 -10 -17 -17 -16 -13 -17 -12 -4 4 13 16 21
21 21 13z m417 -88 c-3 -7 -5 -2 -5 12 0 14 2 19 5 13 2 -7 2 -19 0 -25z m-29
-135 c-10 -2 -18 -9 -18 -14 0 -5 -8 -9 -17 -9 -16 1 -16 2 1 15 11 8 27 14
35 14 13 -1 12 -2 -1 -6z m37 -14 c-4 -5 -12 -9 -18 -8 -9 0 -8 2 1 6 6 2 9
10 6 15 -4 7 -2 8 5 4 6 -4 9 -12 6 -17z m-65 -23 c0 -11 -19 -15 -25 -6 -3 5
1 10 9 10 9 0 16 -2 16 -4z m55 -55 c3 -5 1 -12 -5 -16 -5 -3 -10 1 -10 9 0
18 6 21 15 7z m7 -46 c3 0 9 -3 12 -6 4 -4 -3 -6 -15 -5 -12 0 -24 7 -27 15
-3 10 0 11 9 5 8 -5 17 -9 21 -9z"/>
<path d="M2280 1096 c0 -3 9 -10 20 -16 11 -6 20 -8 20 -6 0 3 -9 10 -20 16
-11 6 -20 8 -20 6z"/>
<path d="M2836 792 c2 -2 -2 -14 -8 -26 -7 -11 -13 -25 -14 -31 0 -5 -2 -15
-2 -22 -1 -7 -9 -10 -17 -7 -8 4 -15 1 -15 -6 0 -26 46 -4 65 32 18 34 18 39
4 51 -9 8 -14 12 -13 9z"/>
<path d="M2766 724 c-16 -25 -26 -47 -23 -50 10 -10 27 6 27 24 0 10 7 28 16
40 9 13 14 25 12 27 -2 2 -16 -16 -32 -41z"/>
<path d="M2631 734 c0 -11 3 -14 6 -6 3 7 2 16 -1 19 -3 4 -6 -2 -5 -13z"/>
<path d="M2460 688 c-12 -22 -12 -22 6 -6 10 10 15 20 12 24 -4 3 -12 -5 -18
-18z"/>
<path d="M2641 694 c0 -11 3 -14 6 -6 3 7 2 16 -1 19 -3 4 -6 -2 -5 -13z"/>
<path d="M2470 659 c0 -5 5 -7 10 -4 6 3 10 8 10 11 0 2 -4 4 -10 4 -5 0 -10
-5 -10 -11z"/>
<path d="M3198 523 c7 -3 16 -2 19 1 4 3 -2 6 -13 5 -11 0 -14 -3 -6 -6z"/>
<path d="M3698 503 c7 -3 16 -2 19 1 4 3 -2 6 -13 5 -11 0 -14 -3 -6 -6z"/>
<path d="M1812 295 c-7 -88 -15 -178 -18 -200 -3 -36 -3 -37 5 -12 14 43 33
243 29 312 -2 44 -6 18 -16 -100z"/>
</g>
</svg>
